<svg viewBox="0 0 550 550" width="550" height="550">
  <g
     transform="translate(18.758163,-520.27566)"
     style="display:inline">
    <path
       id="delta"
       style="display:inline;opacity:1;fill:#466bcc;fill-opacity:1;fill-rule:nonzero;stroke:none;stroke-opacity:1"
       d="M 57.27565,40.73134 4.5793468,40.396307 -48.11657,40.061276 -21.478271,-5.4075447 5.1598321,-50.876032 31.217837,-5.0721783 Z"
       transform="matrix(4.8596626,-0.0339274,0.0339274,4.8596626,232.71296,819.95889)" />
    <path
       id="gamma"
       style="display:inline;fill:#f0f0f0;fill-opacity:1;stroke:none;stroke-width:1px;stroke-linecap:butt;stroke-linejoin:miter;stroke-opacity:1"
       d="M 388.77762,656.02302 252.8271,908.11246 189.48227,771.48329 c -75.90212,-0.0599 55.72791,0.42599 -20.06658,0.5753 l 60.84344,171.83247 c 0,0 -24.0081,32.27624 -14.70623,45.03954 13.4152,18.4075 55.14836,18.2748 68.33092,-0.2998 9.14994,-12.8927 -15.45824,-44.83894 -15.45824,-44.83894 44.49919,-85.1619 82.36165,-205.77708 120.35204,-287.76903 z m -138.90927,283.48855 24.36904,43.46013 -49.26912,-0.021 z" />
  </g>
</svg>
